<svg xmlns="http://www.w3.org/2000/svg" viewBox="0 0 410 404" fill="none">
    <path
        d="M399.641 59.5246L215.643 388.545C211.039 396.725 199.373 396.707 194.807 388.511L10.3503 59.5362C5.29707 50.5012 12.0461 39.4397 22.1484 39.4397H387.782C397.859 39.4397 404.615 50.4455 399.595 59.4806L399.641 59.5246Z"
        fill="url(#paint0_linear)" />
    <path
        d="M292.965 1.5744L156.3 28.2552C150.078 29.5077 145.933 35.7758 147.387 41.952L191.027 223.823C192.738 231.102 200.33 235.051 207.099 232.156L258.472 209.772C264.774 206.986 267.92 199.684 265.439 193.27L233.601 110.718C231.303 104.751 235.515 98.3806 241.863 98.3806H292.039C298.961 98.3806 303.464 91.2632 300.676 85.0004L278.609 35.2749C276.292 30.0275 270.934 27.1416 265.439 28.2552Z"
        fill="url(#paint1_linear)" />
    <defs>
        <linearGradient id="paint0_linear" x1="6.00017" y1="33.0003" x2="235" y2="344" gradientUnits="userSpaceOnUse">
            <stop stop-color="#41D1FF" />
            <stop offset="1" stop-color="#BD34FE" />
        </linearGradient>
        <linearGradient id="paint1_linear" x1="194.651" y1="8.81818" x2="236.076" y2="292.989"
            gradientUnits="userSpaceOnUse">
            <stop stop-color="#FFEA83" />
            <stop offset="0.0833333" stop-color="#FFDD35" />
            <stop offset="1" stop-color="#FFA800" />
        </linearGradient>
    </defs>
</svg>